<?xml version="1.0" encoding="UTF-8"?>
<svg width="700pt" height="700pt" version="1.1" viewBox="0 0 700 700" xmlns="http://www.w3.org/2000/svg">
 <path d="m373.99 280c0 6.3633-2.5273 12.465-7.0273 16.961-4.4961 4.5-10.598 7.0273-16.961 7.0273s-12.465-2.5273-16.961-7.0273c-4.5-4.4961-7.0273-10.598-7.0273-16.961s2.5273-12.465 7.0273-16.961c4.4961-4.5 10.598-7.0273 16.961-7.0273s12.461 2.5273 16.961 7.0273 7.0273 10.598 7.0273 16.961zm-23.988 108.03c-6.3633 0-12.465 2.5273-16.961 7.0273-4.5 4.5-7.0273 10.598-7.0273 16.961s2.5273 12.465 7.0273 16.961c4.4961 4.5 10.598 7.0273 16.961 7.0273s12.465-2.5273 16.961-7.0273c4.5-4.4961 7.0273-10.598 7.0273-16.961s-2.5273-12.461-7.0273-16.961c-4.4961-4.5-10.598-7.0273-16.961-7.0273zm0-216.07v0.003906c6.3633 0 12.465-2.5273 16.961-7.0273 4.5-4.5 7.0273-10.598 7.0273-16.961s-2.5273-12.465-7.0273-16.961c-4.4961-4.5-10.598-7.0273-16.961-7.0273s-12.465 2.5273-16.961 7.0273c-4.5 4.4961-7.0273 10.598-7.0273 16.961s2.5273 12.461 7.0273 16.961c4.4961 4.5 10.598 7.0273 16.961 7.0273z"/>
</svg>
