<svg width="16" height="16" viewBox="0 0 16 16" fill="none" xmlns="http://www.w3.org/2000/svg">
    <path d="M0.000244141 12.0299V15.195H3.14865L12.4346 5.85981L9.28623 2.6947L0.000244141 12.0299ZM14.8695 3.41202C14.9474 3.33391 15.0091 3.24113 15.0513 3.13899C15.0934 3.03685 15.1151 2.92736 15.1151 2.81679C15.1151 2.70621 15.0934 2.59672 15.0513 2.49458C15.0091 2.39244 14.9474 2.29966 14.8695 2.22156L12.9002 0.24691C12.8225 0.168641 12.7303 0.106545 12.6287 0.0641765C12.5271 0.0218084 12.4181 0 12.3082 0C12.1982 0 12.0892 0.0218084 11.9876 0.0641765C11.886 0.106545 11.7938 0.168641 11.7161 0.24691L10.1852 1.79198L13.3336 4.95708L14.8695 3.41202Z"
          fill="#D9D9D9"/>
</svg>
