<svg viewBox="0 0 512 512" xmlns="http://www.w3.org/2000/svg"><path d="M273.549 234.591h-58.75a8 8 0 0 1 0-16h58.75a15.648 15.648 0 1 0 0-31.297h-35.102a31.648 31.648 0 1 1 0-63.297h58.754a8 8 0 0 1 0 16h-58.754a15.649 15.649 0 1 0 0 31.297h35.102a31.648 31.648 0 1 1 0 63.297Z" fill="#ffffff" class="fill-000000"></path><path d="M255.998 255.232a7.998 7.998 0 0 1-8-8V111.357a8 8 0 0 1 16 0v135.875a7.998 7.998 0 0 1-8 8Z" fill="#ffffff" class="fill-000000"></path><path d="M413.522 463.997a7.998 7.998 0 0 1-5.657-2.343l-25.847-25.844-25.848 25.844a7.997 7.997 0 0 1-11.313 0L319.01 435.81l-25.848 25.844a7.997 7.997 0 0 1-11.312 0l-25.848-25.844-25.852 25.844a7.997 7.997 0 0 1-11.313 0L192.99 435.81l-25.848 25.844a7.997 7.997 0 0 1-11.312 0l-25.848-25.844-25.847 25.844a8 8 0 0 1-13.656-5.656v-400a7.998 7.998 0 0 1 8-8h315.043a7.998 7.998 0 0 1 8 8v400a8 8 0 0 1-8 8Zm-220.532-47.5a7.974 7.974 0 0 1 5.657 2.344l25.847 25.844 25.852-25.844a7.997 7.997 0 0 1 11.312 0l25.848 25.844 25.847-25.844a7.997 7.997 0 0 1 11.313 0l25.848 25.844 25.847-25.844a7.997 7.997 0 0 1 11.313 0l17.847 17.844V63.997H106.478v372.688l17.848-17.844a7.997 7.997 0 0 1 11.313 0l25.847 25.844 25.848-25.844a7.974 7.974 0 0 1 5.656-2.344Z" fill="#ffffff" class="fill-000000"></path><path d="M349.522 316.997H162.478a8 8 0 0 1 0-16H349.52a8 8 0 0 1 0 16ZM349.522 369.333H162.478a8 8 0 1 1 0-16H349.52a8 8 0 1 1 0 16Z" fill="#ffffff" class="fill-000000"></path></svg>