<svg width="54" height="59" viewBox="0 0 54 59" fill="none" xmlns="http://www.w3.org/2000/svg">
    <g filter="url(#filter0_d_129_1455)">
        <path d="M37.6712 1.26047C36.8756 2.06612 36.4384 2.78066 36.1477 4.33165V38.9678M37.6712 1.26047C39.0595 0.88187 39.8378 0.945968 41.2261 1.26047C42.2327 1.97291 42.5183 2.47669 42.7497 3.47854V9.10904V16.3604V19.0904M37.6712 1.26047H9.65523L7.36993 2.62544L5.8464 4.33165L5 7.23221V47.0723C5.10054 48.3278 5.39564 48.9344 6.86209 49.6316H34.4549C35.5234 48.7692 35.9941 48.2637 36.1477 47.2429V38.9678M45.1196 38.9678C44.2765 38.5647 43.83 38.279 43.2575 37.2615C42.8293 36.1078 42.7458 35.4973 42.7497 34.4463V24.209V19.0904M45.1196 38.9678C46.6431 38.9678 47.4895 38.1146 47.4895 38.1146C48.161 36.9476 48.3284 36.295 48.3359 35.1288V29.6689V19.0904H43.2575H42.7497M45.1196 38.9678H36.1477M12.7869 3.47854C12.7869 3.47854 12.7869 6.63508 12.7869 6.80566M12.7869 6.80566C13.5354 6.72706 14.2654 6.73392 14.9876 7.23221C15.6988 7.72297 16.1725 9.10904 16.1725 9.10904M12.7869 6.80566C11.9231 6.73818 11.5055 6.85073 10.8402 7.23221C10.1749 7.61369 9.93828 7.67782 9.65523 8.51187C9.37218 9.34591 9.3777 9.81016 9.65523 10.6446C9.93275 11.4791 11.1788 11.9243 11.1788 11.9243L13.9719 12.948C13.9719 12.948 15.4385 13.3565 15.9186 14.313C16.3988 15.2695 16.1725 16.6164 16.1725 16.6164C16.1725 16.6164 15.2368 17.98 14.3105 18.2373C13.7369 18.3966 12.7869 18.2373 12.7869 18.2373M10.2477 43.2333H27.1758M9.48595 15.7633C9.81649 16.3296 10.0018 16.6472 10.3324 17.2135C10.6629 17.7799 12.1098 18.2373 12.1098 18.2373H12.7869M12.7869 20.9672V18.2373M15.3261 36.1525H31.9157M9.23202 28.9864H31.9157M9.23202 22.8441H31.9157M21.8435 9.70626H31.9157" stroke="white" stroke-width="2" shape-rendering="crispEdges"/>
    </g>
    <defs>
        <filter id="filter0_d_129_1455" x="0" y="0" width="53.3359" height="58.6316" filterUnits="userSpaceOnUse" color-interpolation-filters="sRGB">
            <feFlood flood-opacity="0" result="BackgroundImageFix"/>
            <feColorMatrix in="SourceAlpha" type="matrix" values="0 0 0 0 0 0 0 0 0 0 0 0 0 0 0 0 0 0 127 0" result="hardAlpha"/>
            <feOffset dy="4"/>
            <feGaussianBlur stdDeviation="2"/>
            <feComposite in2="hardAlpha" operator="out"/>
            <feColorMatrix type="matrix" values="0 0 0 0 0 0 0 0 0 0 0 0 0 0 0 0 0 0 0.25 0"/>
            <feBlend mode="normal" in2="BackgroundImageFix" result="effect1_dropShadow_129_1455"/>
            <feBlend mode="normal" in="SourceGraphic" in2="effect1_dropShadow_129_1455" result="shape"/>
        </filter>
    </defs>
</svg>
